<mxfile host="Electron" modified="2025-03-03T09:05:45.506Z" agent="Mozilla/5.0 (Windows NT 10.0; Win64; x64) AppleWebKit/537.36 (KHTML, like Gecko) draw.io/24.6.4 Chrome/124.0.6367.207 Electron/30.0.6 Safari/537.36" etag="9j6trR4I_yb4DRC43r-H" version="24.6.4" type="device">
  <diagram name="第 1 页" id="lSXwwyKY9a4dZqknM7-H">
    <mxGraphModel dx="1837" dy="2272" grid="1" gridSize="10" guides="1" tooltips="1" connect="1" arrows="1" fold="1" page="1" pageScale="1" pageWidth="827" pageHeight="1169" math="0" shadow="0">
      <root>
        <mxCell id="0" />
        <mxCell id="1" parent="0" />
        <mxCell id="Qi-_XCWJ-lGAgsF__VU--1" value="&lt;h1 style=&quot;margin-top: 0px;&quot;&gt;Heading&lt;/h1&gt;&lt;p&gt;Lorem ipsum dolor sit amet, consectetur adipisicing elit, sed do eiusmod tempor incididunt ut labore et dolore magna aliqua.&lt;/p&gt;" style="text;html=1;whiteSpace=wrap;overflow=hidden;rounded=0;" parent="1" vertex="1">
          <mxGeometry x="30" y="20" width="180" height="120" as="geometry" />
        </mxCell>
        <mxCell id="Qi-_XCWJ-lGAgsF__VU--2" value="量化策略设计" style="rounded=1;whiteSpace=wrap;html=1;fillColor=#dae8fc;strokeColor=#6c8ebf;fontSize=20;fontStyle=1;strokeWidth=2;" parent="1" vertex="1">
          <mxGeometry x="440" width="200" height="80" as="geometry" />
        </mxCell>
        <mxCell id="Qi-_XCWJ-lGAgsF__VU--3" value="目标" style="rounded=1;whiteSpace=wrap;html=1;fillColor=none;strokeColor=#6c8ebf;fontSize=18;fontStyle=1;verticalAlign=top;dashed=1;strokeWidth=2;gradientColor=none;horizontal=1;" parent="1" vertex="1">
          <mxGeometry x="320" y="120" width="760" height="160" as="geometry" />
        </mxCell>
        <mxCell id="Qi-_XCWJ-lGAgsF__VU--4" value="策略" style="rounded=1;whiteSpace=wrap;html=1;fillColor=none;strokeColor=#6c8ebf;fontSize=18;fontStyle=1;verticalAlign=top;dashed=1;strokeWidth=2;gradientColor=none;" parent="1" vertex="1">
          <mxGeometry x="40" y="320" width="1440" height="630" as="geometry" />
        </mxCell>
        <mxCell id="Qi-_XCWJ-lGAgsF__VU--10" style="edgeStyle=orthogonalEdgeStyle;rounded=0;orthogonalLoop=1;jettySize=auto;html=1;exitX=0.5;exitY=1;exitDx=0;exitDy=0;entryX=0.5;entryY=0;entryDx=0;entryDy=0;" parent="1" source="Qi-_XCWJ-lGAgsF__VU--5" target="Qi-_XCWJ-lGAgsF__VU--8" edge="1">
          <mxGeometry relative="1" as="geometry" />
        </mxCell>
        <mxCell id="Qi-_XCWJ-lGAgsF__VU--13" style="edgeStyle=orthogonalEdgeStyle;rounded=0;orthogonalLoop=1;jettySize=auto;html=1;exitX=0.5;exitY=1;exitDx=0;exitDy=0;entryX=0.5;entryY=0;entryDx=0;entryDy=0;" parent="1" source="Qi-_XCWJ-lGAgsF__VU--5" target="Qi-_XCWJ-lGAgsF__VU--12" edge="1">
          <mxGeometry relative="1" as="geometry" />
        </mxCell>
        <mxCell id="Qi-_XCWJ-lGAgsF__VU--5" value="1.资金安全" style="rounded=1;whiteSpace=wrap;html=1;fillColor=#dae8fc;strokeColor=#6c8ebf;fontSize=14;fontStyle=0;strokeWidth=2;" parent="1" vertex="1">
          <mxGeometry x="400" y="160" width="120" height="80" as="geometry" />
        </mxCell>
        <mxCell id="Qi-_XCWJ-lGAgsF__VU--34" style="edgeStyle=orthogonalEdgeStyle;rounded=0;orthogonalLoop=1;jettySize=auto;html=1;exitX=0.5;exitY=1;exitDx=0;exitDy=0;entryX=0.5;entryY=0;entryDx=0;entryDy=0;" parent="1" source="Qi-_XCWJ-lGAgsF__VU--6" target="Qi-_XCWJ-lGAgsF__VU--15" edge="1">
          <mxGeometry relative="1" as="geometry" />
        </mxCell>
        <mxCell id="Qi-_XCWJ-lGAgsF__VU--35" style="edgeStyle=orthogonalEdgeStyle;rounded=0;orthogonalLoop=1;jettySize=auto;html=1;exitX=0.5;exitY=1;exitDx=0;exitDy=0;" parent="1" source="Qi-_XCWJ-lGAgsF__VU--6" target="Qi-_XCWJ-lGAgsF__VU--14" edge="1">
          <mxGeometry relative="1" as="geometry" />
        </mxCell>
        <mxCell id="Qi-_XCWJ-lGAgsF__VU--6" value="2.持续收益" style="rounded=1;whiteSpace=wrap;html=1;fillColor=#dae8fc;strokeColor=#6c8ebf;fontSize=14;fontStyle=0;strokeWidth=2;" parent="1" vertex="1">
          <mxGeometry x="640" y="160" width="120" height="80" as="geometry" />
        </mxCell>
        <mxCell id="knN59DJHzvjFGV_p35RR-16" style="edgeStyle=orthogonalEdgeStyle;rounded=0;orthogonalLoop=1;jettySize=auto;html=1;entryX=0.5;entryY=0;entryDx=0;entryDy=0;exitX=0.5;exitY=1;exitDx=0;exitDy=0;" edge="1" parent="1" source="Qi-_XCWJ-lGAgsF__VU--7" target="knN59DJHzvjFGV_p35RR-15">
          <mxGeometry relative="1" as="geometry" />
        </mxCell>
        <mxCell id="Qi-_XCWJ-lGAgsF__VU--7" value="3.高收益率" style="rounded=1;whiteSpace=wrap;html=1;fillColor=#dae8fc;strokeColor=#6c8ebf;fontSize=14;fontStyle=0;strokeWidth=2;" parent="1" vertex="1">
          <mxGeometry x="880" y="160" width="120" height="80" as="geometry" />
        </mxCell>
        <mxCell id="Qi-_XCWJ-lGAgsF__VU--11" style="edgeStyle=orthogonalEdgeStyle;rounded=0;orthogonalLoop=1;jettySize=auto;html=1;exitX=0.5;exitY=1;exitDx=0;exitDy=0;" parent="1" source="Qi-_XCWJ-lGAgsF__VU--8" target="Qi-_XCWJ-lGAgsF__VU--9" edge="1">
          <mxGeometry relative="1" as="geometry" />
        </mxCell>
        <mxCell id="Qi-_XCWJ-lGAgsF__VU--43" style="edgeStyle=orthogonalEdgeStyle;rounded=0;orthogonalLoop=1;jettySize=auto;html=1;exitX=0.5;exitY=1;exitDx=0;exitDy=0;entryX=0.5;entryY=0;entryDx=0;entryDy=0;" parent="1" source="Qi-_XCWJ-lGAgsF__VU--8" target="Qi-_XCWJ-lGAgsF__VU--42" edge="1">
          <mxGeometry relative="1" as="geometry" />
        </mxCell>
        <mxCell id="Qi-_XCWJ-lGAgsF__VU--8" value="1.1. 避免爆仓" style="rounded=1;whiteSpace=wrap;html=1;fillColor=#dae8fc;strokeColor=#6c8ebf;fontSize=14;fontStyle=0;strokeWidth=2;" parent="1" vertex="1">
          <mxGeometry x="160" y="360" width="120" height="80" as="geometry" />
        </mxCell>
        <mxCell id="Qi-_XCWJ-lGAgsF__VU--41" style="edgeStyle=orthogonalEdgeStyle;rounded=0;orthogonalLoop=1;jettySize=auto;html=1;" parent="1" source="Qi-_XCWJ-lGAgsF__VU--9" target="Qi-_XCWJ-lGAgsF__VU--40" edge="1">
          <mxGeometry relative="1" as="geometry" />
        </mxCell>
        <mxCell id="Qi-_XCWJ-lGAgsF__VU--9" value="以long为主" style="rounded=1;whiteSpace=wrap;html=1;fillColor=#dae8fc;strokeColor=#6c8ebf;fontSize=14;fontStyle=0;strokeWidth=2;" parent="1" vertex="1">
          <mxGeometry x="80" y="480" width="120" height="80" as="geometry" />
        </mxCell>
        <mxCell id="Qi-_XCWJ-lGAgsF__VU--22" style="edgeStyle=orthogonalEdgeStyle;rounded=0;orthogonalLoop=1;jettySize=auto;html=1;exitX=0.5;exitY=1;exitDx=0;exitDy=0;" parent="1" source="Qi-_XCWJ-lGAgsF__VU--12" target="Qi-_XCWJ-lGAgsF__VU--21" edge="1">
          <mxGeometry relative="1" as="geometry" />
        </mxCell>
        <mxCell id="Qi-_XCWJ-lGAgsF__VU--12" value="1.2. 低回撤" style="rounded=1;whiteSpace=wrap;html=1;fillColor=#dae8fc;strokeColor=#6c8ebf;fontSize=14;fontStyle=0;strokeWidth=2;" parent="1" vertex="1">
          <mxGeometry x="400" y="360" width="120" height="80" as="geometry" />
        </mxCell>
        <mxCell id="knN59DJHzvjFGV_p35RR-14" style="edgeStyle=orthogonalEdgeStyle;rounded=0;orthogonalLoop=1;jettySize=auto;html=1;entryX=0.5;entryY=0;entryDx=0;entryDy=0;exitX=0.5;exitY=1;exitDx=0;exitDy=0;" edge="1" parent="1" source="Qi-_XCWJ-lGAgsF__VU--14" target="Qi-_XCWJ-lGAgsF__VU--21">
          <mxGeometry relative="1" as="geometry" />
        </mxCell>
        <mxCell id="Qi-_XCWJ-lGAgsF__VU--14" value="2.2.&amp;nbsp;&lt;div&gt;少量多次&lt;/div&gt;&lt;div&gt;高频交易&lt;/div&gt;" style="rounded=1;whiteSpace=wrap;html=1;fillColor=#dae8fc;strokeColor=#6c8ebf;fontSize=14;fontStyle=0;strokeWidth=2;" parent="1" vertex="1">
          <mxGeometry x="720" y="360" width="120" height="80" as="geometry" />
        </mxCell>
        <mxCell id="Qi-_XCWJ-lGAgsF__VU--23" style="edgeStyle=orthogonalEdgeStyle;rounded=0;orthogonalLoop=1;jettySize=auto;html=1;exitX=0.5;exitY=1;exitDx=0;exitDy=0;entryX=0.5;entryY=0;entryDx=0;entryDy=0;" parent="1" source="Qi-_XCWJ-lGAgsF__VU--15" target="Qi-_XCWJ-lGAgsF__VU--21" edge="1">
          <mxGeometry relative="1" as="geometry" />
        </mxCell>
        <mxCell id="Qi-_XCWJ-lGAgsF__VU--15" value="2.1. 每单均盈利&lt;div&gt;只做止盈&lt;/div&gt;&lt;div&gt;&lt;span style=&quot;background-color: initial;&quot;&gt;不做止损&lt;/span&gt;&lt;/div&gt;" style="rounded=1;whiteSpace=wrap;html=1;fillColor=#dae8fc;strokeColor=#6c8ebf;fontSize=14;fontStyle=0;strokeWidth=2;" parent="1" vertex="1">
          <mxGeometry x="560" y="360" width="120" height="80" as="geometry" />
        </mxCell>
        <mxCell id="Qi-_XCWJ-lGAgsF__VU--20" value="&lt;div&gt;高价位轻仓&lt;/div&gt;&lt;div&gt;低价位重仓&lt;/div&gt;" style="rounded=1;whiteSpace=wrap;html=1;fillColor=#dae8fc;strokeColor=#6c8ebf;fontSize=14;fontStyle=0;strokeWidth=2;" parent="1" vertex="1">
          <mxGeometry x="400" y="720" width="120" height="80" as="geometry" />
        </mxCell>
        <mxCell id="Qi-_XCWJ-lGAgsF__VU--26" style="edgeStyle=orthogonalEdgeStyle;rounded=0;orthogonalLoop=1;jettySize=auto;html=1;exitX=0.5;exitY=1;exitDx=0;exitDy=0;" parent="1" source="Qi-_XCWJ-lGAgsF__VU--21" target="Qi-_XCWJ-lGAgsF__VU--24" edge="1">
          <mxGeometry relative="1" as="geometry" />
        </mxCell>
        <mxCell id="Qi-_XCWJ-lGAgsF__VU--27" style="edgeStyle=orthogonalEdgeStyle;rounded=0;orthogonalLoop=1;jettySize=auto;html=1;exitX=0.5;exitY=1;exitDx=0;exitDy=0;" parent="1" source="Qi-_XCWJ-lGAgsF__VU--21" target="Qi-_XCWJ-lGAgsF__VU--25" edge="1">
          <mxGeometry relative="1" as="geometry" />
        </mxCell>
        <mxCell id="knN59DJHzvjFGV_p35RR-3" style="edgeStyle=orthogonalEdgeStyle;rounded=0;orthogonalLoop=1;jettySize=auto;html=1;exitX=0.5;exitY=1;exitDx=0;exitDy=0;entryX=0.5;entryY=0;entryDx=0;entryDy=0;" edge="1" parent="1" source="Qi-_XCWJ-lGAgsF__VU--21" target="knN59DJHzvjFGV_p35RR-2">
          <mxGeometry relative="1" as="geometry" />
        </mxCell>
        <mxCell id="Qi-_XCWJ-lGAgsF__VU--21" value="动态仓位调整策略" style="rounded=1;whiteSpace=wrap;html=1;fillColor=#dae8fc;strokeColor=#6c8ebf;fontSize=14;fontStyle=0;strokeWidth=2;" parent="1" vertex="1">
          <mxGeometry x="560" y="480" width="120" height="80" as="geometry" />
        </mxCell>
        <mxCell id="Qi-_XCWJ-lGAgsF__VU--28" style="edgeStyle=orthogonalEdgeStyle;rounded=0;orthogonalLoop=1;jettySize=auto;html=1;exitX=0.5;exitY=1;exitDx=0;exitDy=0;" parent="1" source="Qi-_XCWJ-lGAgsF__VU--24" target="Qi-_XCWJ-lGAgsF__VU--20" edge="1">
          <mxGeometry relative="1" as="geometry" />
        </mxCell>
        <mxCell id="Qi-_XCWJ-lGAgsF__VU--24" value="价格策略（主）" style="rounded=1;whiteSpace=wrap;html=1;fillColor=#dae8fc;strokeColor=#6c8ebf;fontSize=14;fontStyle=0;strokeWidth=2;" parent="1" vertex="1">
          <mxGeometry x="400" y="600" width="120" height="80" as="geometry" />
        </mxCell>
        <mxCell id="Qi-_XCWJ-lGAgsF__VU--30" style="edgeStyle=orthogonalEdgeStyle;rounded=0;orthogonalLoop=1;jettySize=auto;html=1;exitX=0.5;exitY=1;exitDx=0;exitDy=0;entryX=0.5;entryY=0;entryDx=0;entryDy=0;" parent="1" source="Qi-_XCWJ-lGAgsF__VU--25" target="Qi-_XCWJ-lGAgsF__VU--29" edge="1">
          <mxGeometry relative="1" as="geometry" />
        </mxCell>
        <mxCell id="knN59DJHzvjFGV_p35RR-9" style="edgeStyle=orthogonalEdgeStyle;rounded=0;orthogonalLoop=1;jettySize=auto;html=1;exitX=0.5;exitY=1;exitDx=0;exitDy=0;entryX=0.5;entryY=0;entryDx=0;entryDy=0;" edge="1" parent="1" source="Qi-_XCWJ-lGAgsF__VU--25" target="knN59DJHzvjFGV_p35RR-8">
          <mxGeometry relative="1" as="geometry" />
        </mxCell>
        <mxCell id="Qi-_XCWJ-lGAgsF__VU--25" value="趋势策略（次）" style="rounded=1;whiteSpace=wrap;html=1;fillColor=#dae8fc;strokeColor=#6c8ebf;fontSize=14;fontStyle=0;strokeWidth=2;" parent="1" vertex="1">
          <mxGeometry x="560" y="600" width="120" height="80" as="geometry" />
        </mxCell>
        <mxCell id="Qi-_XCWJ-lGAgsF__VU--29" value="&lt;div&gt;&lt;span style=&quot;background-color: initial;&quot;&gt;震荡趋势&lt;/span&gt;&lt;br&gt;&lt;/div&gt;&lt;div&gt;&lt;span style=&quot;background-color: initial;&quot;&gt;基于波动率获利&lt;/span&gt;&lt;/div&gt;&lt;div&gt;&lt;span style=&quot;background-color: initial;&quot;&gt;提高仓位波动幅度&lt;/span&gt;&lt;/div&gt;" style="rounded=1;whiteSpace=wrap;html=1;fillColor=#dae8fc;strokeColor=#6c8ebf;fontSize=14;fontStyle=0;strokeWidth=2;" parent="1" vertex="1">
          <mxGeometry x="560" y="720" width="120" height="80" as="geometry" />
        </mxCell>
        <mxCell id="Qi-_XCWJ-lGAgsF__VU--50" style="edgeStyle=orthogonalEdgeStyle;rounded=0;orthogonalLoop=1;jettySize=auto;html=1;exitX=0.5;exitY=1;exitDx=0;exitDy=0;entryX=0.5;entryY=0;entryDx=0;entryDy=0;" parent="1" source="Qi-_XCWJ-lGAgsF__VU--31" target="Qi-_XCWJ-lGAgsF__VU--33" edge="1">
          <mxGeometry relative="1" as="geometry" />
        </mxCell>
        <mxCell id="Qi-_XCWJ-lGAgsF__VU--31" value="3.1.2. BTC&lt;span style=&quot;background-color: initial;&quot;&gt;币本位合约做多&lt;/span&gt;" style="rounded=1;whiteSpace=wrap;html=1;fillColor=#dae8fc;strokeColor=#6c8ebf;fontSize=14;fontStyle=0;strokeWidth=2;" parent="1" vertex="1">
          <mxGeometry x="1080" y="480" width="120" height="80" as="geometry" />
        </mxCell>
        <mxCell id="Qi-_XCWJ-lGAgsF__VU--39" style="edgeStyle=orthogonalEdgeStyle;rounded=0;orthogonalLoop=1;jettySize=auto;html=1;exitX=0.5;exitY=1;exitDx=0;exitDy=0;entryX=0.5;entryY=0;entryDx=0;entryDy=0;" parent="1" source="Qi-_XCWJ-lGAgsF__VU--32" target="Qi-_XCWJ-lGAgsF__VU--38" edge="1">
          <mxGeometry relative="1" as="geometry" />
        </mxCell>
        <mxCell id="Qi-_XCWJ-lGAgsF__VU--32" value="3.1.3. U本位合约" style="rounded=1;whiteSpace=wrap;html=1;fillColor=#dae8fc;strokeColor=#6c8ebf;fontSize=14;fontStyle=0;strokeWidth=2;" parent="1" vertex="1">
          <mxGeometry x="1240" y="480" width="120" height="80" as="geometry" />
        </mxCell>
        <mxCell id="Qi-_XCWJ-lGAgsF__VU--33" value="赚取单边收益" style="rounded=1;whiteSpace=wrap;html=1;fillColor=#dae8fc;strokeColor=#6c8ebf;fontSize=14;fontStyle=0;strokeWidth=2;" parent="1" vertex="1">
          <mxGeometry x="1080" y="600" width="120" height="80" as="geometry" />
        </mxCell>
        <mxCell id="Qi-_XCWJ-lGAgsF__VU--38" value="基于资金费率获利" style="rounded=1;whiteSpace=wrap;html=1;fillColor=#dae8fc;strokeColor=#6c8ebf;fontSize=14;fontStyle=0;strokeWidth=2;" parent="1" vertex="1">
          <mxGeometry x="1240" y="600" width="120" height="80" as="geometry" />
        </mxCell>
        <mxCell id="Qi-_XCWJ-lGAgsF__VU--40" value="杠杆率 ≤ 1" style="rounded=1;whiteSpace=wrap;html=1;fillColor=#dae8fc;strokeColor=#6c8ebf;fontSize=14;fontStyle=0;strokeWidth=2;" parent="1" vertex="1">
          <mxGeometry x="80" y="600" width="120" height="80" as="geometry" />
        </mxCell>
        <mxCell id="Qi-_XCWJ-lGAgsF__VU--45" style="edgeStyle=orthogonalEdgeStyle;rounded=0;orthogonalLoop=1;jettySize=auto;html=1;exitX=0.5;exitY=1;exitDx=0;exitDy=0;entryX=0.5;entryY=0;entryDx=0;entryDy=0;" parent="1" source="Qi-_XCWJ-lGAgsF__VU--42" target="Qi-_XCWJ-lGAgsF__VU--44" edge="1">
          <mxGeometry relative="1" as="geometry" />
        </mxCell>
        <mxCell id="Qi-_XCWJ-lGAgsF__VU--42" value="short仓位&lt;div&gt;尽可能低&lt;/div&gt;" style="rounded=1;whiteSpace=wrap;html=1;fillColor=#dae8fc;strokeColor=#6c8ebf;fontSize=14;fontStyle=0;strokeWidth=2;" parent="1" vertex="1">
          <mxGeometry x="240" y="480" width="120" height="80" as="geometry" />
        </mxCell>
        <mxCell id="Qi-_XCWJ-lGAgsF__VU--48" style="edgeStyle=orthogonalEdgeStyle;rounded=0;orthogonalLoop=1;jettySize=auto;html=1;exitX=0.5;exitY=1;exitDx=0;exitDy=0;" parent="1" source="Qi-_XCWJ-lGAgsF__VU--44" target="Qi-_XCWJ-lGAgsF__VU--47" edge="1">
          <mxGeometry relative="1" as="geometry" />
        </mxCell>
        <mxCell id="Qi-_XCWJ-lGAgsF__VU--49" style="edgeStyle=orthogonalEdgeStyle;rounded=0;orthogonalLoop=1;jettySize=auto;html=1;exitX=0.5;exitY=1;exitDx=0;exitDy=0;" parent="1" source="Qi-_XCWJ-lGAgsF__VU--44" target="Qi-_XCWJ-lGAgsF__VU--46" edge="1">
          <mxGeometry relative="1" as="geometry" />
        </mxCell>
        <mxCell id="Qi-_XCWJ-lGAgsF__VU--44" value="只在极限条件下做open short" style="rounded=1;whiteSpace=wrap;html=1;fillColor=#dae8fc;strokeColor=#6c8ebf;fontSize=14;fontStyle=0;strokeWidth=2;" parent="1" vertex="1">
          <mxGeometry x="240" y="600" width="120" height="80" as="geometry" />
        </mxCell>
        <mxCell id="Qi-_XCWJ-lGAgsF__VU--46" value="极限情况1：&lt;div&gt;价格极高&lt;/div&gt;" style="rounded=1;whiteSpace=wrap;html=1;fillColor=#dae8fc;strokeColor=#6c8ebf;fontSize=14;fontStyle=0;strokeWidth=2;" parent="1" vertex="1">
          <mxGeometry x="80" y="720" width="120" height="80" as="geometry" />
        </mxCell>
        <mxCell id="Qi-_XCWJ-lGAgsF__VU--47" value="极限情况2：&lt;div&gt;资金费率偏差较大&lt;/div&gt;" style="rounded=1;whiteSpace=wrap;html=1;fillColor=#dae8fc;strokeColor=#6c8ebf;fontSize=14;fontStyle=0;strokeWidth=2;" parent="1" vertex="1">
          <mxGeometry x="240" y="720" width="120" height="80" as="geometry" />
        </mxCell>
        <mxCell id="knN59DJHzvjFGV_p35RR-1" value="算法" style="rounded=1;whiteSpace=wrap;html=1;fillColor=none;strokeColor=#6c8ebf;fontSize=18;fontStyle=1;verticalAlign=top;dashed=1;strokeWidth=2;gradientColor=none;" vertex="1" parent="1">
          <mxGeometry x="40" y="1000" width="1430" height="2090" as="geometry" />
        </mxCell>
        <mxCell id="knN59DJHzvjFGV_p35RR-5" style="edgeStyle=orthogonalEdgeStyle;rounded=0;orthogonalLoop=1;jettySize=auto;html=1;exitX=0.5;exitY=1;exitDx=0;exitDy=0;entryX=0.5;entryY=0;entryDx=0;entryDy=0;" edge="1" parent="1" source="knN59DJHzvjFGV_p35RR-2" target="knN59DJHzvjFGV_p35RR-4">
          <mxGeometry relative="1" as="geometry" />
        </mxCell>
        <mxCell id="knN59DJHzvjFGV_p35RR-7" style="edgeStyle=orthogonalEdgeStyle;rounded=0;orthogonalLoop=1;jettySize=auto;html=1;exitX=0.5;exitY=1;exitDx=0;exitDy=0;entryX=0.5;entryY=0;entryDx=0;entryDy=0;" edge="1" parent="1" source="knN59DJHzvjFGV_p35RR-2" target="knN59DJHzvjFGV_p35RR-6">
          <mxGeometry relative="1" as="geometry" />
        </mxCell>
        <mxCell id="knN59DJHzvjFGV_p35RR-2" value="凯利公式&lt;div&gt;&amp;amp;控制算法&lt;/div&gt;" style="rounded=1;whiteSpace=wrap;html=1;fillColor=#dae8fc;strokeColor=#6c8ebf;fontSize=14;fontStyle=0;strokeWidth=2;" vertex="1" parent="1">
          <mxGeometry x="880" y="600" width="120" height="80" as="geometry" />
        </mxCell>
        <mxCell id="knN59DJHzvjFGV_p35RR-4" value="凯利公式：&lt;div&gt;基于胜率和赔率来确定目标仓位&lt;/div&gt;" style="rounded=1;whiteSpace=wrap;html=1;fillColor=#dae8fc;strokeColor=#6c8ebf;fontSize=14;fontStyle=0;strokeWidth=2;" vertex="1" parent="1">
          <mxGeometry x="880" y="720" width="120" height="80" as="geometry" />
        </mxCell>
        <mxCell id="knN59DJHzvjFGV_p35RR-6" value="控制算法：&lt;div&gt;以目标仓位为受控对象&lt;/div&gt;&lt;div&gt;以开仓平仓订单密度为控制量&lt;/div&gt;" style="rounded=1;whiteSpace=wrap;html=1;fillColor=#dae8fc;strokeColor=#6c8ebf;fontSize=14;fontStyle=0;strokeWidth=2;" vertex="1" parent="1">
          <mxGeometry x="1040" y="720" width="200" height="80" as="geometry" />
        </mxCell>
        <mxCell id="knN59DJHzvjFGV_p35RR-11" style="edgeStyle=orthogonalEdgeStyle;rounded=0;orthogonalLoop=1;jettySize=auto;html=1;exitX=0.5;exitY=1;exitDx=0;exitDy=0;" edge="1" parent="1" source="knN59DJHzvjFGV_p35RR-8" target="knN59DJHzvjFGV_p35RR-10">
          <mxGeometry relative="1" as="geometry" />
        </mxCell>
        <mxCell id="knN59DJHzvjFGV_p35RR-13" style="edgeStyle=orthogonalEdgeStyle;rounded=0;orthogonalLoop=1;jettySize=auto;html=1;exitX=0.5;exitY=1;exitDx=0;exitDy=0;entryX=0.5;entryY=0;entryDx=0;entryDy=0;" edge="1" parent="1" source="knN59DJHzvjFGV_p35RR-8" target="knN59DJHzvjFGV_p35RR-12">
          <mxGeometry relative="1" as="geometry" />
        </mxCell>
        <mxCell id="knN59DJHzvjFGV_p35RR-8" value="&lt;div&gt;单边趋势&lt;/div&gt;&lt;div&gt;降低仓位波动幅度&lt;/div&gt;" style="rounded=1;whiteSpace=wrap;html=1;fillColor=#dae8fc;strokeColor=#6c8ebf;fontSize=14;fontStyle=0;strokeWidth=2;" vertex="1" parent="1">
          <mxGeometry x="720" y="720" width="120" height="80" as="geometry" />
        </mxCell>
        <mxCell id="knN59DJHzvjFGV_p35RR-10" value="&lt;div&gt;单边下跌&lt;/div&gt;&lt;div&gt;避免过多资金被套&lt;/div&gt;&lt;div&gt;减少所有开仓平仓&lt;/div&gt;" style="rounded=1;whiteSpace=wrap;html=1;fillColor=#dae8fc;strokeColor=#6c8ebf;fontSize=14;fontStyle=0;strokeWidth=2;" vertex="1" parent="1">
          <mxGeometry x="640" y="840" width="120" height="80" as="geometry" />
        </mxCell>
        <mxCell id="knN59DJHzvjFGV_p35RR-12" value="&lt;div&gt;单边上涨&lt;/div&gt;&lt;div&gt;提高资金收益率&lt;/div&gt;&lt;div&gt;减少所有开仓平仓&lt;br&gt;&lt;/div&gt;" style="rounded=1;whiteSpace=wrap;html=1;fillColor=#dae8fc;strokeColor=#6c8ebf;fontSize=14;fontStyle=0;strokeWidth=2;" vertex="1" parent="1">
          <mxGeometry x="800" y="840" width="120" height="80" as="geometry" />
        </mxCell>
        <mxCell id="knN59DJHzvjFGV_p35RR-18" style="edgeStyle=orthogonalEdgeStyle;rounded=0;orthogonalLoop=1;jettySize=auto;html=1;exitX=0.5;exitY=1;exitDx=0;exitDy=0;entryX=0.5;entryY=0;entryDx=0;entryDy=0;" edge="1" parent="1" source="knN59DJHzvjFGV_p35RR-15" target="knN59DJHzvjFGV_p35RR-17">
          <mxGeometry relative="1" as="geometry" />
        </mxCell>
        <mxCell id="knN59DJHzvjFGV_p35RR-19" style="edgeStyle=orthogonalEdgeStyle;rounded=0;orthogonalLoop=1;jettySize=auto;html=1;exitX=0.5;exitY=1;exitDx=0;exitDy=0;entryX=0.5;entryY=0;entryDx=0;entryDy=0;" edge="1" parent="1" source="knN59DJHzvjFGV_p35RR-15" target="Qi-_XCWJ-lGAgsF__VU--31">
          <mxGeometry relative="1" as="geometry" />
        </mxCell>
        <mxCell id="knN59DJHzvjFGV_p35RR-20" style="edgeStyle=orthogonalEdgeStyle;rounded=0;orthogonalLoop=1;jettySize=auto;html=1;exitX=0.5;exitY=1;exitDx=0;exitDy=0;" edge="1" parent="1" source="knN59DJHzvjFGV_p35RR-15" target="Qi-_XCWJ-lGAgsF__VU--32">
          <mxGeometry relative="1" as="geometry" />
        </mxCell>
        <mxCell id="knN59DJHzvjFGV_p35RR-15" value="3.1. 多个投资标的" style="rounded=1;whiteSpace=wrap;html=1;fillColor=#dae8fc;strokeColor=#6c8ebf;fontSize=14;fontStyle=0;strokeWidth=2;" vertex="1" parent="1">
          <mxGeometry x="1080" y="360" width="120" height="80" as="geometry" />
        </mxCell>
        <mxCell id="knN59DJHzvjFGV_p35RR-17" value="3.1.1. BTC/USDT 交易对" style="rounded=1;whiteSpace=wrap;html=1;fillColor=#dae8fc;strokeColor=#6c8ebf;fontSize=14;fontStyle=0;strokeWidth=2;" vertex="1" parent="1">
          <mxGeometry x="920" y="480" width="120" height="80" as="geometry" />
        </mxCell>
        <mxCell id="knN59DJHzvjFGV_p35RR-21" value="控制算法" style="rounded=1;whiteSpace=wrap;html=1;fillColor=none;strokeColor=#6c8ebf;fontSize=16;fontStyle=1;strokeWidth=2;verticalAlign=top;dashed=1;" vertex="1" parent="1">
          <mxGeometry x="180" y="2320" width="520" height="430" as="geometry" />
        </mxCell>
        <mxCell id="knN59DJHzvjFGV_p35RR-22" value="受控对象" style="rounded=1;whiteSpace=wrap;html=1;fillColor=#dae8fc;strokeColor=#6c8ebf;fontSize=14;fontStyle=0;strokeWidth=2;" vertex="1" parent="1">
          <mxGeometry x="260" y="2400" width="120" height="80" as="geometry" />
        </mxCell>
        <mxCell id="knN59DJHzvjFGV_p35RR-23" value="控制量：&lt;div&gt;订单密度&lt;/div&gt;" style="rounded=1;whiteSpace=wrap;html=1;fillColor=#dae8fc;strokeColor=#6c8ebf;fontSize=14;fontStyle=0;strokeWidth=2;" vertex="1" parent="1">
          <mxGeometry x="500" y="2400" width="120" height="80" as="geometry" />
        </mxCell>
        <mxCell id="knN59DJHzvjFGV_p35RR-36" value="计算目标仓位" style="rounded=1;whiteSpace=wrap;html=1;fillColor=none;strokeColor=#6c8ebf;fontSize=16;fontStyle=1;strokeWidth=2;verticalAlign=top;dashed=1;" vertex="1" parent="1">
          <mxGeometry x="1010" y="1710" width="360" height="410" as="geometry" />
        </mxCell>
        <mxCell id="knN59DJHzvjFGV_p35RR-40" style="edgeStyle=orthogonalEdgeStyle;rounded=0;orthogonalLoop=1;jettySize=auto;html=1;entryX=0.5;entryY=0;entryDx=0;entryDy=0;" edge="1" parent="1" source="knN59DJHzvjFGV_p35RR-37" target="knN59DJHzvjFGV_p35RR-39">
          <mxGeometry relative="1" as="geometry" />
        </mxCell>
        <mxCell id="knN59DJHzvjFGV_p35RR-37" value="预测赔率" style="rounded=1;whiteSpace=wrap;html=1;fillColor=#dae8fc;strokeColor=#6c8ebf;fontSize=14;fontStyle=0;strokeWidth=2;" vertex="1" parent="1">
          <mxGeometry x="1050" y="1760" width="120" height="80" as="geometry" />
        </mxCell>
        <mxCell id="knN59DJHzvjFGV_p35RR-41" style="edgeStyle=orthogonalEdgeStyle;rounded=0;orthogonalLoop=1;jettySize=auto;html=1;" edge="1" parent="1" source="knN59DJHzvjFGV_p35RR-38" target="knN59DJHzvjFGV_p35RR-39">
          <mxGeometry relative="1" as="geometry" />
        </mxCell>
        <mxCell id="knN59DJHzvjFGV_p35RR-38" value="预测胜率" style="rounded=1;whiteSpace=wrap;html=1;fillColor=#dae8fc;strokeColor=#6c8ebf;fontSize=14;fontStyle=0;strokeWidth=2;" vertex="1" parent="1">
          <mxGeometry x="1210" y="1760" width="120" height="80" as="geometry" />
        </mxCell>
        <mxCell id="knN59DJHzvjFGV_p35RR-43" style="edgeStyle=orthogonalEdgeStyle;rounded=0;orthogonalLoop=1;jettySize=auto;html=1;" edge="1" parent="1" source="knN59DJHzvjFGV_p35RR-39" target="knN59DJHzvjFGV_p35RR-42">
          <mxGeometry relative="1" as="geometry" />
        </mxCell>
        <mxCell id="knN59DJHzvjFGV_p35RR-39" value="凯利公式" style="rounded=1;whiteSpace=wrap;html=1;fillColor=#dae8fc;strokeColor=#6c8ebf;fontSize=14;fontStyle=0;strokeWidth=2;" vertex="1" parent="1">
          <mxGeometry x="1130" y="1880" width="120" height="80" as="geometry" />
        </mxCell>
        <mxCell id="knN59DJHzvjFGV_p35RR-42" value="目标仓位" style="rounded=1;whiteSpace=wrap;html=1;fillColor=#dae8fc;strokeColor=#6c8ebf;fontSize=14;fontStyle=0;strokeWidth=2;" vertex="1" parent="1">
          <mxGeometry x="1130" y="2000" width="120" height="80" as="geometry" />
        </mxCell>
        <mxCell id="knN59DJHzvjFGV_p35RR-45" value="趋势感知" style="rounded=1;whiteSpace=wrap;html=1;fillColor=none;strokeColor=#6c8ebf;fontSize=16;fontStyle=1;strokeWidth=2;verticalAlign=top;dashed=1;" vertex="1" parent="1">
          <mxGeometry x="130" y="1620" width="850" height="610" as="geometry" />
        </mxCell>
        <mxCell id="knN59DJHzvjFGV_p35RR-46" value="趋势感知算法" style="rounded=1;whiteSpace=wrap;html=1;fillColor=#dae8fc;strokeColor=#6c8ebf;fontSize=15;fontStyle=0;strokeWidth=2;verticalAlign=top;dashed=1;" vertex="1" parent="1">
          <mxGeometry x="400" y="1760" width="560" height="240" as="geometry" />
        </mxCell>
        <mxCell id="knN59DJHzvjFGV_p35RR-27" value="傅里叶变换" style="rounded=1;whiteSpace=wrap;html=1;fillColor=#dae8fc;strokeColor=#6c8ebf;fontSize=14;fontStyle=0;strokeWidth=2;" vertex="1" parent="1">
          <mxGeometry x="450" y="1900" width="120" height="80" as="geometry" />
        </mxCell>
        <mxCell id="knN59DJHzvjFGV_p35RR-29" value="短时傅里叶变换（STFT）" style="rounded=1;whiteSpace=wrap;html=1;fillColor=#dae8fc;strokeColor=#6c8ebf;fontSize=14;fontStyle=0;strokeWidth=2;" vertex="1" parent="1">
          <mxGeometry x="540" y="1800" width="120" height="80" as="geometry" />
        </mxCell>
        <mxCell id="knN59DJHzvjFGV_p35RR-71" style="edgeStyle=orthogonalEdgeStyle;rounded=0;orthogonalLoop=1;jettySize=auto;html=1;exitX=0.5;exitY=1;exitDx=0;exitDy=0;" edge="1" parent="1" source="knN59DJHzvjFGV_p35RR-31" target="knN59DJHzvjFGV_p35RR-48">
          <mxGeometry relative="1" as="geometry" />
        </mxCell>
        <mxCell id="knN59DJHzvjFGV_p35RR-31" value="小波变换&lt;div&gt;（CWT）&lt;/div&gt;" style="rounded=1;whiteSpace=wrap;html=1;fillColor=#dae8fc;strokeColor=#6c8ebf;fontSize=14;fontStyle=0;strokeWidth=2;" vertex="1" parent="1">
          <mxGeometry x="790" y="1900" width="120" height="80" as="geometry" />
        </mxCell>
        <mxCell id="knN59DJHzvjFGV_p35RR-33" value="希尔伯特-黄变换（HHT）" style="rounded=1;whiteSpace=wrap;html=1;fillColor=#dae8fc;strokeColor=#6c8ebf;fontSize=14;fontStyle=0;strokeWidth=2;" vertex="1" parent="1">
          <mxGeometry x="710" y="1800" width="120" height="80" as="geometry" />
        </mxCell>
        <mxCell id="knN59DJHzvjFGV_p35RR-48" value="短期趋势" style="rounded=1;whiteSpace=wrap;html=1;fillColor=#dae8fc;strokeColor=#6c8ebf;fontSize=15;fontStyle=0;strokeWidth=2;verticalAlign=top;dashed=1;" vertex="1" parent="1">
          <mxGeometry x="644" y="2080" width="320" height="130" as="geometry" />
        </mxCell>
        <mxCell id="knN59DJHzvjFGV_p35RR-49" value="单边趋势" style="rounded=1;whiteSpace=wrap;html=1;fillColor=#dae8fc;strokeColor=#6c8ebf;fontSize=14;fontStyle=0;strokeWidth=2;" vertex="1" parent="1">
          <mxGeometry x="674" y="2110" width="120" height="80" as="geometry" />
        </mxCell>
        <mxCell id="knN59DJHzvjFGV_p35RR-50" value="震荡趋势" style="rounded=1;whiteSpace=wrap;html=1;fillColor=#dae8fc;strokeColor=#6c8ebf;fontSize=14;fontStyle=0;strokeWidth=2;" vertex="1" parent="1">
          <mxGeometry x="814" y="2110" width="120" height="80" as="geometry" />
        </mxCell>
        <mxCell id="knN59DJHzvjFGV_p35RR-52" value="折叠率" style="rounded=1;whiteSpace=wrap;html=1;fillColor=#dae8fc;strokeColor=#6c8ebf;fontSize=14;fontStyle=0;strokeWidth=2;" vertex="1" parent="1">
          <mxGeometry x="620" y="1900" width="120" height="80" as="geometry" />
        </mxCell>
        <mxCell id="knN59DJHzvjFGV_p35RR-57" value="反馈逻辑" style="rounded=1;whiteSpace=wrap;html=1;fillColor=#dae8fc;strokeColor=#6c8ebf;fontSize=15;fontStyle=0;strokeWidth=2;verticalAlign=top;dashed=1;" vertex="1" parent="1">
          <mxGeometry x="260" y="2520" width="360" height="200" as="geometry" />
        </mxCell>
        <mxCell id="knN59DJHzvjFGV_p35RR-61" value="多投资标的仓位分配" style="rounded=1;whiteSpace=wrap;html=1;fillColor=none;strokeColor=#6c8ebf;fontSize=16;fontStyle=1;strokeWidth=2;verticalAlign=top;dashed=1;" vertex="1" parent="1">
          <mxGeometry x="200" y="1080" width="920" height="520" as="geometry" />
        </mxCell>
        <mxCell id="knN59DJHzvjFGV_p35RR-62" value="一级仓位配置" style="rounded=1;whiteSpace=wrap;html=1;fillColor=#dae8fc;strokeColor=#6c8ebf;fontSize=15;fontStyle=0;strokeWidth=2;verticalAlign=top;dashed=1;" vertex="1" parent="1">
          <mxGeometry x="290" y="1130" width="440" height="240" as="geometry" />
        </mxCell>
        <mxCell id="knN59DJHzvjFGV_p35RR-25" value="一级仓位配置" style="rounded=1;whiteSpace=wrap;html=1;fillColor=#dae8fc;strokeColor=#6c8ebf;fontSize=14;fontStyle=0;strokeWidth=2;" vertex="1" parent="1">
          <mxGeometry x="480" y="1169" width="120" height="80" as="geometry" />
        </mxCell>
        <mxCell id="knN59DJHzvjFGV_p35RR-63" value="&lt;h1 style=&quot;margin-top: 0px;&quot;&gt;&lt;font style=&quot;font-size: 14px;&quot;&gt;一级仓位&lt;/font&gt;&lt;/h1&gt;&lt;p&gt;定义： BTC/USDT 交易对中的“BTC价值（以USDT计价）/总资产价值（以USDT计价）”的值。&lt;/p&gt;&lt;p&gt;目标：长周期、大幅度的低买高卖套利。需要考虑BTC牛熊周期。&lt;/p&gt;&lt;p&gt;&lt;br&gt;&lt;/p&gt;" style="text;html=1;whiteSpace=wrap;overflow=hidden;rounded=0;" vertex="1" parent="1">
          <mxGeometry x="310" y="1160" width="150" height="180" as="geometry" />
        </mxCell>
        <mxCell id="knN59DJHzvjFGV_p35RR-64" value="长期趋势" style="rounded=1;whiteSpace=wrap;html=1;fillColor=#dae8fc;strokeColor=#6c8ebf;fontSize=15;fontStyle=0;strokeWidth=2;verticalAlign=top;dashed=1;" vertex="1" parent="1">
          <mxGeometry x="390" y="2080" width="240" height="130" as="geometry" />
        </mxCell>
        <mxCell id="knN59DJHzvjFGV_p35RR-65" value="牛熊周期" style="rounded=1;whiteSpace=wrap;html=1;fillColor=#dae8fc;strokeColor=#6c8ebf;fontSize=14;fontStyle=0;strokeWidth=2;" vertex="1" parent="1">
          <mxGeometry x="450" y="2110" width="120" height="80" as="geometry" />
        </mxCell>
        <mxCell id="knN59DJHzvjFGV_p35RR-67" value="二级多头仓位配置" style="rounded=1;whiteSpace=wrap;html=1;fillColor=#dae8fc;strokeColor=#6c8ebf;fontSize=15;fontStyle=0;strokeWidth=2;verticalAlign=top;dashed=1;" vertex="1" parent="1">
          <mxGeometry x="240" y="1400" width="400" height="170" as="geometry" />
        </mxCell>
        <mxCell id="knN59DJHzvjFGV_p35RR-68" value="二级空头仓位配置" style="rounded=1;whiteSpace=wrap;html=1;fillColor=#dae8fc;strokeColor=#6c8ebf;fontSize=15;fontStyle=0;strokeWidth=2;verticalAlign=top;dashed=1;" vertex="1" parent="1">
          <mxGeometry x="680" y="1400" width="400" height="170" as="geometry" />
        </mxCell>
        <mxCell id="knN59DJHzvjFGV_p35RR-70" value="滞回控制" style="rounded=1;whiteSpace=wrap;html=1;fillColor=#dae8fc;strokeColor=#6c8ebf;fontSize=14;fontStyle=0;strokeWidth=2;" vertex="1" parent="1">
          <mxGeometry x="480" y="1270" width="120" height="80" as="geometry" />
        </mxCell>
        <mxCell id="knN59DJHzvjFGV_p35RR-69" style="edgeStyle=orthogonalEdgeStyle;rounded=0;orthogonalLoop=1;jettySize=auto;html=1;exitX=0.5;exitY=1;exitDx=0;exitDy=0;entryX=0.5;entryY=0;entryDx=0;entryDy=0;" edge="1" parent="1" source="knN59DJHzvjFGV_p35RR-27" target="knN59DJHzvjFGV_p35RR-64">
          <mxGeometry relative="1" as="geometry" />
        </mxCell>
        <mxCell id="knN59DJHzvjFGV_p35RR-73" style="edgeStyle=orthogonalEdgeStyle;rounded=0;orthogonalLoop=1;jettySize=auto;html=1;exitX=0.5;exitY=1;exitDx=0;exitDy=0;entryX=0.5;entryY=0;entryDx=0;entryDy=0;" edge="1" parent="1" source="knN59DJHzvjFGV_p35RR-72" target="knN59DJHzvjFGV_p35RR-46">
          <mxGeometry relative="1" as="geometry" />
        </mxCell>
        <mxCell id="knN59DJHzvjFGV_p35RR-72" value="特征工程&lt;div&gt;todo&lt;/div&gt;" style="rounded=1;whiteSpace=wrap;html=1;fillColor=#dae8fc;strokeColor=#6c8ebf;fontSize=15;fontStyle=0;strokeWidth=2;verticalAlign=top;dashed=1;" vertex="1" parent="1">
          <mxGeometry x="404" y="1680" width="560" height="60" as="geometry" />
        </mxCell>
        <mxCell id="knN59DJHzvjFGV_p35RR-51" style="edgeStyle=orthogonalEdgeStyle;rounded=0;orthogonalLoop=1;jettySize=auto;html=1;exitX=0.5;exitY=1;exitDx=0;exitDy=0;entryX=0.5;entryY=0;entryDx=0;entryDy=0;" edge="1" parent="1" source="knN59DJHzvjFGV_p35RR-52" target="knN59DJHzvjFGV_p35RR-48">
          <mxGeometry relative="1" as="geometry" />
        </mxCell>
        <mxCell id="knN59DJHzvjFGV_p35RR-74" value="&lt;h1 style=&quot;margin-top: 0px;&quot;&gt;&lt;font style=&quot;font-size: 14px;&quot;&gt;趋势感知算法&lt;/font&gt;&lt;/h1&gt;&lt;p&gt;&lt;span style=&quot;background-color: initial;&quot;&gt;宏观、长周期趋势：&lt;br&gt;1. 傅里叶变换。需要在预处理阶段，将BTC价格进行标准化处理，保证预处理后的结果存在一定的周期性规律。&lt;/span&gt;&lt;br&gt;&lt;/p&gt;&lt;p&gt;微观、短周期趋势：&lt;br&gt;1. 小波变换。小波变换能够分析短期内的时域和频域信息，以及时频域变化情况。低频分量代表短期走势，高频分量代表波动（随机扰动）。&lt;br&gt;2. 折叠率。自定义指标，用于分析波动率以及涨跌走势。&lt;/p&gt;" style="text;html=1;whiteSpace=wrap;overflow=hidden;rounded=0;" vertex="1" parent="1">
          <mxGeometry x="170" y="1760" width="220" height="230" as="geometry" />
        </mxCell>
      </root>
    </mxGraphModel>
  </diagram>
</mxfile>
